<svg xmlns="http://www.w3.org/2000/svg" viewBox="0 0 743.41 237.77"><defs><style>.cls-1,.cls-2{fill:#cda349;}.cls-2{fill-rule:evenodd;}</style></defs><title>Asset 3</title><g id="Layer_2" data-name="Layer 2"><g id="Layer_1-2" data-name="Layer 1"><path class="cls-1" d="M373.6,237.77v-.31s0,.11-.05.16S373.59,237.71,373.6,237.77Z"/><path class="cls-1" d="M367,156.73l.88.11c-.48,3.61-6.75,7.21-7,7.36l-.44-.77C360.44,163.39,366.53,159.89,367,156.73Z"/><path class="cls-1" d="M369.09,159.3l.9,0a20.26,20.26,0,0,1-5,12.74l-.42-1A18.51,18.51,0,0,0,369.09,159.3Z"/><path class="cls-1" d="M366,153.86s2.41,4.7,6.19,7.09l-.12,1.17c-4-2.55-6.81-7.73-6.88-7.91Z"/><path class="cls-1" d="M340.86,170.18c5,.4,14.77-2.42,18.49-8.15,0,0-.45-.36-1.25.36s-5.91,6-12.67,4.16c0,0-2.33-1-3.58-.4a3.2,3.2,0,0,0,1.7,2.1,9.42,9.42,0,0,1-5.46,0c-2.38-.85-1.84-1.66-2.6-1.34A7.29,7.29,0,0,0,340.86,170.18Z"/><path class="cls-1" d="M341.11,178.42a1.57,1.57,0,0,0,1.48-1c3.26-.32,11.66-2.14,17.4-12l-.77-.45c-5.45,9.34-13.35,11.17-16.54,11.52a1.59,1.59,0,1,0-1.56,1.91Z"/><path class="cls-1" d="M345.86,158.38a1.48,1.48,0,0,0,.53-.1c1.62,1.43,5.12,3.44,11.27,2.1l-.19-.88c-5.61,1.21-8.82-.49-10.34-1.77a1.58,1.58,0,1,0-1.27.64Z"/><path class="cls-1" d="M361.44,167.33s-.81.18-2.11,3.45-6,8.46-8.73,8.56-6.67.13-7.39,2a7.27,7.27,0,0,0,5.24.67,42.81,42.81,0,0,1-6,3.36c-1.67.54-4.43,1.66-6.8,0a2.42,2.42,0,0,0-1.57-.44,5.65,5.65,0,0,0,4.43,2.33,18.71,18.71,0,0,0,15.85-6.4C359.83,174.54,361.66,167.69,361.44,167.33Z"/><path class="cls-1" d="M346.74,195.58a1.59,1.59,0,0,0,1.59-1.59s0,0,0,0c3-1.47,11.45-6.82,15.78-21.95l-.87-.24c-4.12,14.42-12.26,19.8-15.19,21.32a1.59,1.59,0,1,0-1.31,2.49Z"/><path class="cls-1" d="M357.27,217.76a1.59,1.59,0,0,0,1.59-1.59,1.56,1.56,0,0,0-.21-.77c3.12-3.47,10.84-14.08,11.84-35.19l-.9,0c-1,20.82-8.55,31.24-11.58,34.6a1.51,1.51,0,0,0-.75-.2,1.59,1.59,0,1,0,0,3.17Z"/><path class="cls-1" d="M354,203.54s-.21.29-.59.76a44.79,44.79,0,0,1-8.89,6c-4.1,2.48-8.46,4.25-10.5,2.27a1.85,1.85,0,0,0,.14.9h0c0,.25.21.52.87.8a1.06,1.06,0,0,0,.27.07c3.19,1.13,12.09-.3,19.22-5.94l.17-.14.43-.35h0a27.55,27.55,0,0,0,4.13-4.27l0,0a24.61,24.61,0,0,0,3.86-6.45,27.2,27.2,0,0,0,1.17-3.55,40.77,40.77,0,0,0,3.53-18.14l-1-.27a42.11,42.11,0,0,1-3.2,17.48,24.36,24.36,0,0,1-16,10S348.24,205.62,354,203.54Z"/><path class="cls-1" d="M362.63,226.83a4.15,4.15,0,0,0,1.26.26,5.81,5.81,0,0,0,5.26-2.84,9.82,9.82,0,0,0,.59-.94s1.12,8.8,2.31,13.53c1.19-4.72,2.32-13.56,2.32-13.56a9.5,9.5,0,0,0,.59.94c1.82,2.58,3.94,2.93,5.25,2.84a4.46,4.46,0,0,0,1.26-.25c-4.91-4.29-7.55-11.7-9-18.16V180.18h-.89v28.5C370.18,215.14,367.55,222.55,362.63,226.83Z"/><path class="cls-1" d="M377.14,156.72l-.89.12c.48,3.6,6.75,7.21,7,7.36l.44-.78C383.66,163.39,377.56,159.89,377.14,156.72Z"/><path class="cls-1" d="M375,159.3l-.9,0a19.05,19.05,0,0,0,4.81,12.37l.63-.63A18.57,18.57,0,0,1,375,159.3Z"/><path class="cls-1" d="M378.11,153.86s-2.41,4.7-6.18,7.09l.12,1.18c4-2.55,6.8-7.74,6.88-7.91Z"/><path class="cls-1" d="M403.23,170.18c-5,.4-14.77-2.42-18.49-8.15,0,0,.45-.35,1.25.36s5.91,5.95,12.67,4.16c0,0,2.33-1,3.58-.4a3.2,3.2,0,0,1-1.7,2.11,9.39,9.39,0,0,0,5.46,0c2.38-.85,1.84-1.66,2.6-1.34A7.3,7.3,0,0,1,403.23,170.18Z"/><path class="cls-1" d="M403,178.42a1.58,1.58,0,0,1-1.47-1c-3.26-.33-11.66-2.14-17.4-12l.77-.45c5.45,9.34,13.35,11.17,16.54,11.52a1.59,1.59,0,1,1,1.56,1.92Z"/><path class="cls-1" d="M398.24,158.38a1.61,1.61,0,0,1-.53-.1c-1.62,1.44-5.12,3.43-11.26,2.1l.19-.87c5.61,1.21,8.82-.5,10.34-1.77a1.59,1.59,0,1,1,1.27.64Z"/><path class="cls-1" d="M382.65,167.33s.8.18,2.1,3.45,6,8.46,8.73,8.56,6.67.13,7.39,2a7.27,7.27,0,0,1-5.24.67,43,43,0,0,0,6,3.36c1.68.54,4.43,1.66,6.8,0A2.47,2.47,0,0,1,410,185a5.67,5.67,0,0,1-4.44,2.33,18.7,18.7,0,0,1-15.85-6.4C384.26,174.54,382.43,167.69,382.65,167.33Z"/><path class="cls-1" d="M397.35,195.58a1.59,1.59,0,0,1-1.59-1.59s0,0,0,0c-3-1.47-11.45-6.82-15.77-22l.86-.25c4.12,14.43,12.26,19.8,15.19,21.32a1.59,1.59,0,1,1,1.31,2.5Z"/><path class="cls-1" d="M386.83,217.76a1.59,1.59,0,0,1-1.59-1.59,1.53,1.53,0,0,1,.21-.76c-3.13-3.47-10.84-14.09-11.84-35.19l.86-1c1,20.82,8.59,32.18,11.61,35.55a1.45,1.45,0,0,1,.75-.2,1.59,1.59,0,0,1,0,3.17Z"/><path class="cls-1" d="M390,203.54s.2.28.59.75a44.8,44.8,0,0,0,8.89,6c4.09,2.48,8.46,4.26,10.51,2.28a1.89,1.89,0,0,1-.14.9v0c0,.24-.21.51-.87.8a1,1,0,0,1-.27.07c-3.19,1.14-12.09-.3-19.22-5.94l-.16-.13-.43-.35h0a27.06,27.06,0,0,1-4.13-4.27h0a24.49,24.49,0,0,1-3.86-6.45,27.63,27.63,0,0,1-1.17-3.55,43.19,43.19,0,0,1-3.52-18.48l1,.08a42.11,42.11,0,0,0,3.2,17.48,24.37,24.37,0,0,0,16,10S395.85,205.61,390,203.54Z"/><path class="cls-1" d="M439.32,163.15s7.27-6.26,10.65-4.08a13.51,13.51,0,0,0-8.21-6.86S444.6,156.71,439.32,163.15Z"/><path class="cls-1" d="M410.39,177a35.67,35.67,0,0,1-3.83-.2c-13.16-1.37-20.37-7.74-24.09-12.84-5.14-7-6.37-15.35-5.31-20.47,2.06-9.95,14.29-18.4,24.21-16.73a20.66,20.66,0,0,1,14.06,9.37,12.59,12.59,0,0,1,1.13,10.94,13.84,13.84,0,0,1-11.13,9.13,10.26,10.26,0,0,1-10-4.79l1.52-1a8.53,8.53,0,0,0,8.32,4,12,12,0,0,0,9.63-8,10.86,10.86,0,0,0-1-9.39,18.77,18.77,0,0,0-12.79-8.5c-8.91-1.48-20.29,6.39-22.14,15.32-1,4.73.18,12.45,5,19,3.5,4.8,10.31,10.79,22.81,12.1,23.43,2.46,38.45-19.44,38.6-19.66l1.5,1C446.69,156.58,432.69,177,410.39,177Z"/><circle class="cls-1" cx="400.4" cy="143.75" r="5.19"/><path class="cls-1" d="M399.35,148.94s-2,4.6,3.89,5.58l.63,1.72s-12.31.55-12.43-9.35,9.05-8.55,10.08-8.2"/><path class="cls-1" d="M502.16,140.9a2.75,2.75,0,1,1-2.75-2.74A2.75,2.75,0,0,1,502.16,140.9Z"/><circle class="cls-1" cx="737.4" cy="107.45" r="2.55"/><path class="cls-1" d="M737.4,109.75s3.27.54,3.52,3.62.53-1.19.34-1.68a9.21,9.21,0,0,0-1.31-3.25c-1-1.4-1.8-2.26-2.55-2.4"/><path class="cls-1" d="M304.8,163.15s-7.27-6.24-10.65-4.07a13.53,13.53,0,0,1,8.21-6.87S299.52,156.72,304.8,163.15Z"/><path class="cls-1" d="M333.73,177a35.75,35.75,0,0,0,3.84-.21c13.16-1.37,20.36-7.73,24.09-12.83,5.14-7,6.37-15.35,5.31-20.47-2.06-9.95-14.29-18.4-24.21-16.74a20.65,20.65,0,0,0-14.06,9.38,12.55,12.55,0,0,0-1.12,10.93,13.82,13.82,0,0,0,11.12,9.13,10.26,10.26,0,0,0,10-4.79l-1.52-1a8.52,8.52,0,0,1-8.32,4,12,12,0,0,1-9.62-8,10.86,10.86,0,0,1,1-9.39,18.76,18.76,0,0,1,12.79-8.49c8.91-1.48,20.29,6.38,22.14,15.31,1,4.72-.18,12.45-5,19-3.51,4.79-10.32,10.79-22.82,12.1-23.43,2.45-38.45-19.45-38.6-19.66l-1.5,1C297.43,156.58,311.43,177,333.73,177Z"/><circle class="cls-1" cx="343.72" cy="143.75" r="5.19"/><path class="cls-1" d="M344.78,148.94s2,4.59-3.89,5.58l-.63,1.72s12.31.54,12.43-9.36-9.05-8.55-10.08-8.21"/><path class="cls-1" d="M590.71,150.39h0l-.68.2s0,.09,0,.13c-2.9,1.4-14.87,6.12-23.36-6.19,0,0,5.08,15.72,25,10.66.15.37.34.77.51,1.16C561.44,172.28,576.27,188,576.27,188c-6.69-18.69,14-26.28,18-27.55,0,.06.07.14.11.2l1.19-.83c-2.29-3.29-4.17-9.57-4.18-9.63Z"/><path class="cls-1" d="M738,105l-.36,1.77a3,3,0,0,1,1.54,1.21,3.72,3.72,0,0,0-1.48-.29c4,1.33,3.26,8,3.26,8-1,14-15.81,17.39-19.07,16.11s-8.39-1.35-13-.29-11-1.06-11-1.06c14.12,3.16,20.64-10.29,20.64-10.29-11.79,10.73-28.84,6.49-35.39,4.29-8.21-6.42-16.16-14.73-24-23.44,11.66,9.67,17.34,6.85,17.34,6.85-7.48-3.5-14.9-11.1-14.9-11.1,11.35,3.74,16.1-4.83,16.1-4.83-11.42,4.18-24.82-1.39-30-3.94-5.55-6.33-11.2-12.67-16.8-18.2a99.68,99.68,0,0,0-7.92-7,17.17,17.17,0,0,0,18.39-2.34c-7.74,1.86-19.11-.32-23.12-1.22-.79-.55-1.58-1.13-2.36-1.64,5.81,1.54,16.13,0,16.13,0-8.07-4.61-16.22-2.07-18.23-1.32-1.39-.86-2.78-1.69-4.15-2.44l.1,0c-.31-.16-.6-.29-.91-.45a86.45,86.45,0,0,0-13.29-5.77c-18-6.39-32.16-5.87-36.2-5.54,0-2.23-.16-4.12-.25-5.27,25.51,7,30.14-1,30.14-1-5.67,3.17-12.43,0-12.43,0,10,.37,12.43-6.41,12.43-6.41a4.68,4.68,0,0,1-4.47.72c.26-.13.51-.28.76-.44,6.57-4.22,6.12-14.88,6.12-14.88C584.42,36,564.72,36.21,559,35.79a1,1,0,0,1,0-.1l-.88,0-.75-.09.09.12h-.27c0,.11.45,11.41-1.46,16.61l2.4.34c6.5,1.11,24.21,5.52,28,20.89,1.85,7.56.89,13.22-1.18,17.15A33.86,33.86,0,0,0,565,80.5a41.71,41.71,0,0,0-32.86,9.25c-.6.52-1.16,1.09-1.73,1.64-2.15-5-3.59-7.26-4.33-8.2a13.07,13.07,0,0,1,4-2.21l-.46-1.75a13.73,13.73,0,0,0-8.83,8.21l1.7.61a10.59,10.59,0,0,1,2.22-3.63c.65.86,2.08,3.12,4.29,8.38-5.42,6-8.7,14.11-9.3,23.28-.82,12.43,3.31,24.94,11,33.46,11.52,12.7,29,14,35.4,14,1.52,0,2.42-.07,2.47-.08l-.16-1.8c-.23,0-22.72,1.76-36.37-13.28-7.41-8.17-11.36-20.18-10.58-32.13a36.59,36.59,0,0,1,8.27-21.51c1.34,3.33,2.92,7.63,4.76,13.25,6.5,19.87,15.1,24.55,18.23,24.77a21.61,21.61,0,0,0,6.15,3.05,15.83,15.83,0,0,0-8.83,6.18s7.87-4.07,15.18-5.12a18.88,18.88,0,0,0,2.68-.2c.35,0,.72-.07,1.06-.05l-.14,0c6.75-1.24,13.51-5.85,18.1-12.76,6.23-9.36,6.79-20,1.51-28.35a31.4,31.4,0,0,0-1.95-2.74c2.32-4.05,3.74-10.41,2.93-20.34,0,0,1.45,6.07,6.43,9.05,0,0,2.06-12.74-19.41-23.84l-.28-.14s5.12,0,7.31-3.35c0,0-12.38-4.44-25.18-2.23a30.2,30.2,0,0,0,.92-7.25,141.5,141.5,0,0,1,19.46,1.73c10.08,2.07,32.82,10.09,41.8,41,10.71,36.84-17.92,61-22.77,64.74a15.51,15.51,0,0,1-1-4.31l-1.45.05a15.42,15.42,0,0,0,4.91,10.34l1-1.09a11.93,11.93,0,0,1-2.63-3.32c4.07-3.09,35-28.17,23.71-66.92-4.73-16.25-13.19-26.33-21.74-32.63,7.27,4.46,16,10.55,22.34,17.23,1.1,1.24,2.33,2.74,3.63,4.5l2.21,3.22c5,7.76,10.4,19.33,12.34,35.19a24.67,24.67,0,0,1-4.22.16l-.12,1.44c.07,0,.64,0,1.5,0,2.19,0,6.32-.28,9.11-2.22l-.83-1.19a10.5,10.5,0,0,1-3.66,1.47c-4.15-33.56-23.41-48.53-23.61-48.68,0,0-12.46-10-24.85-15.76l4.16,1.17a90.79,90.79,0,0,1,31,20.36c6.63,6.54,13.38,14.27,19.9,21.74,19.7,22.56,40,45.85,63.67,45.84a35.28,35.28,0,0,0,5-.35c22.31-3.11,25.09-15.89,25.24-21.24C743.58,111.26,741,105.64,738,105ZM587,96.37c4.89,7.76,4.34,17.62-1.49,26.38-5.69,8.55-14.83,13.39-22.77,12.07-7.62-1.27-13.21-5.78-15.32-12.36-1.75-5.49-.67-11.26,2.78-14.71,4-4,9.46-5.69,13.92-4.31l.17.08a5.62,5.62,0,0,0-4.74,5.5,5.7,5.7,0,1,0,11.4,0,5.26,5.26,0,0,0-.12-.62l.08,0c0-.22-.15-.4-.21-.61a5.45,5.45,0,0,0-.47-1.38,8.83,8.83,0,0,0-5.58-4.69c-5.09-1.57-11.27.3-15.73,4.76-3.92,3.92-5.19,10.41-3.22,16.54a18.82,18.82,0,0,0,3,5.72c-3.38-2.65-8.19-8.48-12.41-21.36-2-6.12-3.71-10.71-5.14-14.2.69-.71,1.39-1.4,2.15-2a39.85,39.85,0,0,1,31.41-8.84,32,32,0,0,1,19.2,10.08c-2.63,3.82-6.32,5.48-8.72,5.15a1.73,1.73,0,0,0,.32-1,1.81,1.81,0,1,0-3.62,0,1.75,1.75,0,0,0,.65,1.35c1.33,1.49,8.35,2.59,13-3.6C586,95,586.53,95.65,587,96.37Z"/><path class="cls-1" d="M526.53,75,528,74.7s-.34-.68-.87-1.8v0h0A102.49,102.49,0,0,1,520,52.41a71.21,71.21,0,0,1,29.63-7.83,52.4,52.4,0,0,1-.54,5.81l1.79.28a75.31,75.31,0,0,0,.61-12.28l-1.81.07s.06,1.85,0,4.29a73.2,73.2,0,0,0-30.06,7.79,30,30,0,0,1-.31-10.17c1.62-8.92,7.42-12.94,11.44-13.44,2.34,0,2.89.71,2.89.71h0a.85.85,0,0,0,.84.77.86.86,0,0,0,.86-.86.85.85,0,0,0-.61-.81c-1.08-.53-5.64-2.37-11.22,1.2-6.29,4-9.19,11.68-8.6,15.26-.21-1.58-2-13.51-6.13-14.3s-2.16,11.16,2.33,17.44c-1.87-2.06-4.93-4.91-6.07-3-1.69,2.9,6,7.73,8.69,10.14.07.06.15.17.23.24a74.49,74.49,0,0,0-11.22,8.84c-4.39-4-6.2-6.3-6.9-7.41l-1.53.94a44.62,44.62,0,0,0,7.12,7.72c-9.56,9.47-16.22,20.64-21.16,30.35-4.81,9.48-10.13,18.88-14.62,26.49,9-24.13,6.33-46.22,4.67-56.49a11,11,0,0,1,3.82.26l.49-1.74a13.07,13.07,0,0,0-4.6-.32c0-.17-.06-.37-.09-.53a95.86,95.86,0,0,1-1.13-11.65,30.3,30.3,0,0,1,13.94-25.3c-6.28-1.93-10.5,3.26-10.5,3.26,4-4.83,2.17-8.45,7.12-13.89s10.74-1.39,10.74-1.39c-.1,1.69,1.14,1.77,2,1.63s1-1.16,1-1.38a2.69,2.69,0,0,0-1-2.08h0l0,0a4.35,4.35,0,0,0-.73-.48c-4.91-2.9-11.49-.21-11.49-.21v0c-14.33,5.43-13.49,31.07-13.15,36.5a117.91,117.91,0,0,0-6.27-16.15c-4.36-8.93-8.87-18.16-3.31-24.92,4.07-4.95,7.88-3.81,9.43-3,0,0,0,.05,0,.09a1.52,1.52,0,1,0,3,0,1.44,1.44,0,0,0-1-1.3l0,0c-.07,0-6.6-5-13.11,2.92s-1.62,17.66,3,27.18a111.69,111.69,0,0,1,5.51,13.85C461,40.28,455,33,445.36,31.56c0,0-9.41-.24-10.38,6.64,0,0,0,3.26,3.22,2.17,0,0,2-1.08,0-3.14s5.11-6.39,8.37-3.5c3.08,2.74,6.4,6,9.55,7.3-2-.38-6.33-.62-8.58,3.44,0,0,7-2.42,11.46.84,3.55,2.59,7,8.23,8.76,13.76.14,1.06.26,2.16.42,3.1,0,.13.05.31.08.46a23.23,23.23,0,0,0-4,1.08l.67,1.68a22.61,22.61,0,0,1,3.61-1A119.7,119.7,0,0,1,470,92.3a9.33,9.33,0,0,0-.35-1.72c-1.69-4.95-9.29-10.86-12.19-8.08,0,0-1.33.12,2.9,3.14a21.35,21.35,0,0,1,8.37,17.08,95.55,95.55,0,0,1-13.42,34.88l1.54,1,0,0,.06,0c.13-.22,13.91-21.65,25-43.53,4.87-9.58,11.46-20.61,20.9-29.95,2.1,1.89,4.51,3.95,7.28,6.19l1.14-1.41c-2.87-2.33-5.19-4.32-7.12-6a72.94,72.94,0,0,1,11-8.62c3,4.28,8.16,14.28,9.43,18.67a17.21,17.21,0,0,0-7,6.37c-2.69-.47-20.19-3-23.64,12.27a23,23,0,0,1,22.84-5.81v-.06l.07,0A15.74,15.74,0,0,1,526.53,75ZM467.07,51.31h0Z"/><path class="cls-1" d="M666.43,99.41c12.1,9.81,16.92-1.88,16.92-1.88C678.44,101.93,666.43,99.41,666.43,99.41Z"/><path class="cls-1" d="M654.25,132.4a101.43,101.43,0,0,1-4.34-12.81l0,0-.21-.64v0h0l-.23-.69a40.25,40.25,0,0,1-13,2v.11l0-.1a39.7,39.7,0,0,1-23.66,25.33c7.36,2.42,17.11-5.8,17.11-5.8a5.62,5.62,0,0,0,.51,5.8c4.83-1.33,6.14-21.09,6.3-23.89h.55a42.11,42.11,0,0,0,11.43-1.68c-.24,4.13-1.12,25.16,6.4,23.7,0,0-2.29-3.62-2.17-5.89,0,0,8.26,8,21.18,2.38C674.17,140.12,657.69,140.9,654.25,132.4Z"/><path class="cls-1" d="M493.61,131.36c-15-4.1-23.29,8.41-23.29,8.41.24-6.1,11.7-14,11.7-14-13.28,1.69-12.06,10.75-16.77,16.79a72,72,0,0,1-11.34,11.1v.08a47,47,0,0,0-8.45-6.78l.11-.06a18.54,18.54,0,0,0,4.62-19.43c-4-11.83-12.1-10.92-12.1-10.92s8.81,5.05,8.33,13.66c-.39,6.8-4.48,12.3-3.62,15.33l-.63,1.13c.08,0,8.15,4.55,12.12,9.74l1.15-.88-.06-.06c24.43-24.08,32-23,37.86-21.59s6.28,4.59,6.28,4.59c-3.26,2.9-.34,4.92-.34,4.92C502.06,144.53,508.57,135.47,493.61,131.36Z"/><path class="cls-1" d="M491.16,25.91A2.15,2.15,0,1,0,493,23.52,2.14,2.14,0,0,0,491.16,25.91Z"/><path class="cls-1" d="M493.54,35.54a2.78,2.78,0,1,0-2.43,3.09A2.79,2.79,0,0,0,493.54,35.54Z"/><path class="cls-1" d="M492.59,51.63a3.16,3.16,0,1,0-3.51-2.77A3.16,3.16,0,0,0,492.59,51.63Z"/><path class="cls-1" d="M645.87,144.53a2.54,2.54,0,1,0-2.54,2.54A2.54,2.54,0,0,0,645.87,144.53Z"/><ellipse class="cls-1" cx="647.64" cy="152.9" rx="2.54" ry="2.54"/><circle class="cls-1" cx="656.26" cy="156.44" r="2.54"/><path class="cls-1" d="M644.3,135.61a2.54,2.54,0,1,0-2.55,2.55A2.54,2.54,0,0,0,644.3,135.61Z"/><path class="cls-1" d="M641.75,128.92a2.54,2.54,0,1,0-2.54-2.54A2.54,2.54,0,0,0,641.75,128.92Z"/><path class="cls-1" d="M152.7,150.39h0l.68.2,0,.13c2.9,1.4,14.87,6.12,23.37-6.19,0,0-5.09,15.72-25,10.66-.15.37-.34.77-.51,1.16C182,172.28,167.15,188,167.15,188c6.69-18.69-14-26.28-18-27.55,0,.06-.07.14-.11.2l-1.19-.83c2.29-3.29,4.17-9.57,4.19-9.63Z"/><path class="cls-1" d="M0,117.06c.15,5.35,2.93,18.13,25.24,21.24a35.28,35.28,0,0,0,5,.35c23.64,0,44-23.28,63.67-45.84,6.53-7.47,13.27-15.2,19.9-21.74a90.77,90.77,0,0,1,31-20.36L149,49.53c-12.39,5.77-24.85,15.76-24.85,15.76-.19.15-19.46,15.12-23.61,48.68a10.48,10.48,0,0,1-3.66-1.47l-.83,1.19c2.79,1.94,6.91,2.22,9.11,2.22.86,0,1.43,0,1.5,0l-.12-1.44a24.67,24.67,0,0,1-4.22-.16c1.95-15.86,7.29-27.43,12.35-35.19l2.21-3.22c1.29-1.76,2.53-3.26,3.62-4.5,6.32-6.68,15.07-12.78,22.35-17.23-8.55,6.3-17,16.38-21.74,32.63-11.27,38.75,19.64,63.83,23.71,66.92a11.94,11.94,0,0,1-2.62,3.32l1,1.09a15.4,15.4,0,0,0,4.91-10.34l-1.45-.05a15.31,15.31,0,0,1-1,4.31c-4.84-3.76-33.47-27.91-22.76-64.74,9-30.9,31.72-38.92,41.8-41a141.44,141.44,0,0,1,19.46-1.73,30,30,0,0,0,.93,7.25C172.24,49.6,159.86,54,159.86,54c2.2,3.38,7.31,3.35,7.31,3.35l-.28.14c-21.47,11.11-19.41,23.84-19.41,23.84,5-3,6.43-9.05,6.43-9.05-.81,9.93.62,16.29,2.93,20.34a32.5,32.5,0,0,0-1.95,2.74c-5.28,8.38-4.71,19,1.52,28.35,4.59,6.9,11.35,11.52,18.1,12.76l-.14,0c.34,0,.71,0,1.06.05a18.85,18.85,0,0,0,2.68.2c7.31,1.05,15.18,5.12,15.18,5.12a15.83,15.83,0,0,0-8.82-6.18,21.7,21.7,0,0,0,6.15-3.05c3.12-.22,11.72-4.9,18.23-24.77,1.84-5.63,3.42-9.92,4.76-13.25a36.61,36.61,0,0,1,8.27,21.51c.79,12-3.17,24-10.58,32.13-13.64,15-36.13,13.3-36.37,13.28l-.15,1.8s.95.08,2.47.08c6.41,0,23.87-1.25,35.39-14,7.73-8.52,11.86-21,11-33.46-.6-9.17-3.88-17.26-9.3-23.28,2.22-5.26,3.65-7.51,4.29-8.37A10.53,10.53,0,0,1,220.89,88l1.7-.61a13.73,13.73,0,0,0-8.83-8.21L213.3,81a13,13,0,0,1,4,2.21c-.74.94-2.17,3.19-4.33,8.2-.57-.55-1.12-1.12-1.73-1.64a41.71,41.71,0,0,0-32.85-9.25,33.87,33.87,0,0,0-19.9,10.25c-2.06-3.93-3-9.6-1.18-17.15,3.75-15.37,21.46-19.78,28-20.89l2.4-.34c-1.91-5.2-1.46-16.49-1.46-16.61H186l.09-.12-.76.09-.88,0s0,.09,0,.1c-5.75.42-25.45.23-32.64-20.92,0,0-.45,10.66,6.12,14.88a8.62,8.62,0,0,0,.76.44,4.68,4.68,0,0,1-4.46-.72s2.44,6.78,12.43,6.41c0,0-6.76,3.17-12.43,0,0,0,4.62,7.94,30.14,1-.09,1.16-.22,3-.25,5.27-4-.33-18.2-.85-36.2,5.54a86.56,86.56,0,0,0-13.29,5.77c-.3.16-.6.29-.91.45l.1,0c-1.37.75-2.76,1.58-4.15,2.44-2-.75-10.16-3.28-18.22,1.32,0,0,10.32,1.53,16.12,0-.78.51-1.57,1.09-2.36,1.64-4,.89-15.38,3.08-23.12,1.22a17.16,17.16,0,0,0,18.39,2.34,100.44,100.44,0,0,0-7.92,7c-5.6,5.53-11.26,11.87-16.8,18.2-5.18,2.55-18.58,8.12-30,3.94,0,0,4.76,8.57,16.11,4.83,0,0-7.42,7.6-14.9,11.1,0,0,5.68,2.83,17.34-6.85-7.79,8.72-15.74,17-24,23.44-6.54,2.2-23.6,6.44-35.39-4.29,0,0,6.52,13.45,20.64,10.29,0,0-6.34,2.11-11,1.06s-9.78-1-13,.29S3.47,129.68,2.5,115.67c0,0-.72-6.63,3.26-8a3.74,3.74,0,0,0-1.48.29,3,3,0,0,1,1.54-1.21L5.46,105C2.39,105.64-.17,111.26,0,117.06ZM157.89,94.31c4.65,6.2,11.67,5.09,13,3.6a1.76,1.76,0,0,0,.65-1.35,1.81,1.81,0,1,0-3.61,0,1.76,1.76,0,0,0,.31,1c-2.4.33-6.09-1.33-8.72-5.15a32,32,0,0,1,19.19-10.08,39.85,39.85,0,0,1,31.41,8.84c.75.64,1.46,1.33,2.15,2-1.43,3.49-3.14,8.08-5.14,14.2-4.22,12.87-9,18.71-12.4,21.36a19,19,0,0,0,3-5.72c2-6.13.7-12.62-3.22-16.54-4.46-4.46-10.64-6.32-15.73-4.76a8.84,8.84,0,0,0-5.58,4.69,5.51,5.51,0,0,0-.47,1.38c-.06.21-.16.39-.2.61l.08,0a5.26,5.26,0,0,0-.13.62,5.7,5.7,0,1,0,11.41,0,5.62,5.62,0,0,0-4.75-5.5l.17-.08c4.47-1.38,9.93.31,13.92,4.31,3.45,3.44,4.54,9.22,2.78,14.71-2.11,6.58-7.7,11.09-15.32,12.36-7.94,1.32-17.08-3.53-22.76-12.07-5.82-8.75-6.38-18.62-1.49-26.38C156.88,95.65,157.39,95,157.89,94.31Z"/><path class="cls-1" d="M226.54,86.67l.06,0v.06a23,23,0,0,1,22.84,5.81C246,77.28,228.5,79.77,225.81,80.25a17.21,17.21,0,0,0-7-6.37c1.27-4.38,6.42-14.38,9.43-18.67a72.9,72.9,0,0,1,11,8.62c-1.92,1.72-4.25,3.71-7.12,6l1.15,1.41c2.76-2.25,5.17-4.3,7.27-6.19,9.45,9.34,16,20.37,20.9,29.95,11.12,21.88,24.89,43.31,25,43.53l.06,0,0,0,1.54-1a95.62,95.62,0,0,1-13.42-34.88,21.36,21.36,0,0,1,8.37-17.08c4.23-3,2.9-3.14,2.9-3.14-2.9-2.78-10.5,3.14-12.19,8.08a9,9,0,0,0-.35,1.72,119.36,119.36,0,0,1,1.41-27.87,22.51,22.51,0,0,1,3.61,1l.67-1.68a23.39,23.39,0,0,0-4-1.08l.08-.46c.16-.94.28-2,.42-3.1,1.77-5.53,5.21-11.17,8.76-13.76,4.47-3.26,11.47-.84,11.47-.84-2.26-4.06-6.55-3.82-8.58-3.44,3.14-1.3,6.47-4.56,9.55-7.3,3.26-2.89,10.39,1.44,8.37,3.5s0,3.14,0,3.14c3.18,1.09,3.22-2.17,3.22-2.17-1-6.88-10.38-6.64-10.38-6.64-9.6,1.44-15.6,8.71-18.74,14a111.32,111.32,0,0,1,5.51-13.85c4.66-9.53,9.48-19.38,3-27.18s-13.05-3-13.12-2.92l0,0a1.44,1.44,0,0,0-1,1.3,1.52,1.52,0,1,0,3,0s0-.06,0-.09c1.55-.79,5.37-1.93,9.44,3,5.56,6.76,1.06,16-3.31,24.92a118.22,118.22,0,0,0-6.27,16.15c.34-5.43,1.18-31.07-13.15-36.5v0s-6.58-2.69-11.49.21a4.5,4.5,0,0,0-.73.48l0,0h0a2.68,2.68,0,0,0-1,2.08c0,.22.21,1.19,1,1.38s2.12.07,2-1.63c0,0,5.79-4,10.74,1.39s3.12,9.06,7.12,13.89c0,0-4.22-5.19-10.5-3.26a30.3,30.3,0,0,1,13.94,25.3,96.29,96.29,0,0,1-1.13,11.65c0,.16-.06.36-.09.53a13.09,13.09,0,0,0-4.61.32l.49,1.74a11,11,0,0,1,3.82-.26c-1.66,10.26-4.37,32.35,4.67,56.49-4.48-7.61-9.8-17-14.62-26.49-4.93-9.71-11.6-20.88-21.16-30.35a44.6,44.6,0,0,0,7.12-7.72l-1.53-.94c-.69,1.11-2.51,3.37-6.9,7.41a74.64,74.64,0,0,0-11.22-8.84c.07-.08.16-.18.22-.24,2.66-2.41,10.38-7.24,8.69-10.14-1.14-2-4.19.89-6.07,3,4.48-6.28,6.36-18.2,2.33-17.44s-5.92,12.72-6.13,14.3c.59-3.58-2.3-11.23-8.59-15.26-5.57-3.57-10.13-1.73-11.22-1.2a.85.85,0,0,0-.61.81.86.86,0,0,0,.86.86.85.85,0,0,0,.84-.77h0s.56-.71,2.89-.71c4,.5,9.82,4.52,11.44,13.44a29.89,29.89,0,0,1-.31,10.17,73.18,73.18,0,0,0-30.05-7.79c-.05-2.45,0-4.26,0-4.29l-1.81-.07a75.15,75.15,0,0,0,.61,12.28l1.79-.28a53.51,53.51,0,0,1-.54-5.81,71.23,71.23,0,0,1,29.63,7.83,102.79,102.79,0,0,1-7.13,20.45h0v0c-.52,1.12-.87,1.8-.87,1.8l1.47.26A15.76,15.76,0,0,1,226.54,86.67ZM276.34,51.3h0Z"/><path class="cls-1" d="M77,99.41c-12.1,9.81-16.92-1.88-16.92-1.88C65,101.93,77,99.41,77,99.41Z"/><path class="cls-1" d="M89.16,132.4a102.07,102.07,0,0,0,4.35-12.81l-.05,0,.21-.64v0h0l.23-.69a40.25,40.25,0,0,0,13,2v.11l0-.1a39.71,39.71,0,0,0,23.66,25.33c-7.36,2.42-17.11-5.8-17.11-5.8a5.63,5.63,0,0,1-.52,5.8c-4.82-1.33-6.14-21.09-6.3-23.89h-.55a42.12,42.12,0,0,1-11.43-1.68c.24,4.13,1.12,25.16-6.4,23.7,0,0,2.29-3.62,2.17-5.89,0,0-8.26,8-21.18,2.38C69.25,140.12,85.72,140.9,89.16,132.4Z"/><path class="cls-1" d="M249.81,131.36c15-4.1,23.29,8.41,23.29,8.41-.24-6.1-11.71-14-11.71-14,13.28,1.69,12.07,10.75,16.78,16.79a71.84,71.84,0,0,0,11.35,11.1v.08A47,47,0,0,1,298,147l-.12-.06a18.54,18.54,0,0,1-4.62-19.43c4-11.83,12.1-10.92,12.1-10.92s-8.81,5.05-8.33,13.66c.38,6.8,4.47,12.3,3.62,15.33l.63,1.13c-.08,0-8.14,4.55-12.12,9.74l-1.15-.88.06-.06c-24.43-24.08-32-23-37.86-21.59s-6.27,4.59-6.27,4.59c3.26,2.9.33,4.92.33,4.92C241.36,144.53,234.84,135.47,249.81,131.36Z"/><path class="cls-1" d="M252.25,25.91a2.14,2.14,0,1,1-1.87-2.39A2.14,2.14,0,0,1,252.25,25.91Z"/><path class="cls-1" d="M249.87,35.54a2.78,2.78,0,1,1,2.44,3.09A2.79,2.79,0,0,1,249.87,35.54Z"/><path class="cls-1" d="M250.82,51.63a3.16,3.16,0,1,1,3.51-2.77A3.16,3.16,0,0,1,250.82,51.63Z"/><path class="cls-1" d="M97.54,144.53a2.54,2.54,0,1,1,2.54,2.54A2.54,2.54,0,0,1,97.54,144.53Z"/><circle class="cls-1" cx="95.77" cy="152.9" r="2.54"/><circle class="cls-1" cx="87.16" cy="156.44" r="2.54"/><path class="cls-1" d="M99.12,135.61a2.54,2.54,0,1,1,2.54,2.55A2.54,2.54,0,0,1,99.12,135.61Z"/><path class="cls-1" d="M101.66,128.92a2.54,2.54,0,1,1,2.54-2.54A2.54,2.54,0,0,1,101.66,128.92Z"/><path class="cls-1" d="M384.13,160.85a46.79,46.79,0,0,1-12.28,18.93c.5.46,1,.87,1.53,1.28A49,49,0,0,0,386,161.51c3.75-10.69,8.56-10.55,8.6-10.58l.07-1-.09,1,.09-1,.09-1C394.51,148.94,388.45,148.52,384.13,160.85Z"/><path class="cls-1" d="M359.55,160.85c-4.32-12.32-10.38-11.9-10.63-11.9l.09,1,.09,1-.09-1,.07,1s4.84-.12,8.59,10.58a49.05,49.05,0,0,0,12.63,19.55c.52-.41,1-.83,1.54-1.28A46.82,46.82,0,0,1,359.55,160.85Z"/><path class="cls-1" d="M370.3,181.06c.51.46,1,.9,1.54,1.32.52-.42,1-.86,1.53-1.32-.52-.41-1-.83-1.53-1.28C371.33,180.23,370.82,180.65,370.3,181.06Z"/><path class="cls-2" d="M365,66.59c-1-.7-1.78-1.35-2.66-1.84-8.59-4.79-10.84-18.92.41-25.69,6.88-4.13,17.09-4.12,23.22.31,5.62,4.07,6.11,12.55.91,16.9-1.09.91-2.26,2.2-4.41,1.06a10.35,10.35,0,0,1,1.83-1.54c5.78-2.73,5.77-13.09-.94-15.78-3.54-1.42-7-2.69-10.86-1.73a12.88,12.88,0,0,0-10.26,12.84c-.11,8.41,3,12.5,11.28,14.7a7.76,7.76,0,0,1,1.59,1,9.76,9.76,0,0,1-2,1.22c-2.87.71-5.88,1-8.63,2C355,73.6,350.39,80.83,349,90.62a34,34,0,0,0,.84,12.25c2.41,10.91,11.1,18.13,22.8,18.79,8,.45,15.39-1.5,21.79-6.57a25.24,25.24,0,0,0,9.19-15.68c1.37-7.15-.29-13.57-4-19.63a6.13,6.13,0,0,0-.69-.93,5.86,5.86,0,0,0-1-.58c-.82.82-1.77,1.64-2.57,2.6a34.33,34.33,0,0,1-12.83,9.8c-6.8,3-13.19,1.12-19.47-1.72-.42-.19-.59-1-1.26-2.17a30.91,30.91,0,0,1,3.87.93c7.16,2.94,13.25.66,18.61-4.07,3.19-2.81,5.79-6.28,8.83-9.27,4.6-4.55,8.94-9.5,14.12-13.27,6.8-4.95,14.53-4.63,22.1-1.2a11.78,11.78,0,0,1,2.19,1.71l-.4.79c-1.18-.33-2.38-.59-3.51-1a15.76,15.76,0,0,0-16.11,2.54,59.35,59.35,0,0,0-11.79,12.52c.79,1.25,1.54,2.43,2.3,3.61,8.52,13.13,3.9,30.31-7.65,38.21-11.27,7.69-29.31,8.18-41.11-.1a27.8,27.8,0,0,1-.33-45.45,38.8,38.8,0,0,1,5.68-3.31C360.57,68.39,362.63,67.62,365,66.59Z"/><path class="cls-1" d="M359.54,54.95q7.88,7.64,7.88,20.07t-7.88,20.07q-7.88,7.64-20.55,7.64H312.15v-.79h1a4.81,4.81,0,0,0,3.52-1.46A5.1,5.1,0,0,0,318.24,97V52.61a4,4,0,0,0-1.54-3.21,5.31,5.31,0,0,0-3.52-1.31h-.95l-.08-.79H339Q351.66,47.31,359.54,54.95Zm-36.15-5.26v50.67H339a21.83,21.83,0,0,0,11.76-3.17,21.14,21.14,0,0,0,7.92-8.91A29.82,29.82,0,0,0,361.48,75q0-11.4-6.21-18.37t-16.27-7Z"/><path class="cls-1" d="M389.72,103.65a4.81,4.81,0,0,0,3.52-1.46,5.09,5.09,0,0,0,1.54-3.52V54.32a5.08,5.08,0,0,0-1.66-3.21,4.87,4.87,0,0,0-3.41-1.31h-.95l-.08-.79h23.2a33.22,33.22,0,0,0,5.34-.48,21.69,21.69,0,0,0,4.08-1v10h-.79V56.14a4.67,4.67,0,0,0-4.44-4.67H399.93V75.94h13.38A4,4,0,0,0,416,74.75,3.76,3.76,0,0,0,417.12,72V70.87h.79V83.38h-.79V82.19A3.74,3.74,0,0,0,416,79.5a3.83,3.83,0,0,0-2.65-1.19H399.93V102h11.33q5.86,0,8.95-2.61a19.38,19.38,0,0,0,5.15-7.76h.79l-4.59,12.83H388.69v-.79Z"/></g></g></svg>